<svg width="119" height="66" viewBox="0 0 119 66" fill="none" xmlns="http://www.w3.org/2000/svg">
<g id="Group">
<path id="Vector" d="M8.76292 18.3643V28.45H0.194946V0.690186H11.9432C14.8722 0.690186 17.1011 1.02997 18.6244 1.70954C20.1477 2.3891 21.361 3.42463 22.2536 4.82152C23.1462 6.21841 23.5952 7.78249 23.5952 9.51916C23.5952 12.1619 22.6812 14.2977 20.8532 15.9265C19.0253 17.5553 16.5879 18.3643 13.536 18.3643H8.76292ZM8.63999 12.4046H11.4621C13.9475 12.4046 15.1929 11.4824 15.1929 9.63782C15.1929 7.90114 14.0437 7.03281 11.7454 7.03281H8.63999V12.4046Z" fill="#046548"/>
<path id="Vector_2" d="M49.0691 0.690186V19.0762C49.0691 22.5604 47.9947 25.0629 45.8461 26.5892C43.6974 28.1156 40.8966 28.876 37.4438 28.876C33.8092 28.876 30.8909 28.1425 28.6834 26.6809C26.4813 25.2193 25.3748 22.83 25.3748 19.5239V0.690186H34.3758V18.5261C34.3758 19.8529 34.6697 20.8237 35.2523 21.4332C35.8349 22.0426 36.765 22.35 38.0478 22.35C39.1168 22.35 39.988 22.1289 40.6721 21.6866C41.3563 21.2444 41.7625 20.7482 41.8961 20.1927C42.0298 19.6372 42.0939 18.5477 42.0939 16.9351V0.690186H49.0691Z" fill="#046548"/>
<path id="Vector_3" d="M52.8964 28.45V0.690186H66.8628C69.7651 0.690186 71.8817 1.42908 73.2126 2.90687C74.5435 4.38466 75.2063 6.07279 75.2063 7.97126C75.2063 9.35736 74.8214 10.6032 74.0464 11.7251C73.2714 12.8415 72.1222 13.6127 70.5882 14.0334C74.148 14.9018 75.9278 17.0537 75.9278 20.5001C75.9278 22.5604 75.2971 24.3995 74.0411 26.0175C72.785 27.6355 70.1018 28.45 65.9916 28.45H52.8911H52.8964ZM60.6787 11.3259H64.5858C65.564 11.3259 66.2588 11.0779 66.6597 10.5709C67.0606 10.0693 67.2637 9.53534 67.2637 8.96364C67.2637 7.41574 66.3229 6.64449 64.4415 6.64449H60.6733V11.3206L60.6787 11.3259ZM60.6787 22.2691H64.7889C65.8098 22.2691 66.5581 22.0156 67.0392 21.5087C67.5149 21.0017 67.7554 20.43 67.7554 19.7882C67.7554 19.1464 67.5256 18.5639 67.0606 18.0299C66.5955 17.496 65.7457 17.2263 64.511 17.2263H60.684V22.2691H60.6787Z" fill="#046548"/>
<path id="Vector_4" d="M78.6266 0.690186V28.45H97.9113V21.6381H87.0663V0.690186H78.6266Z" fill="#046548"/>
<path id="Vector_5" d="M108.773 0.690186H100.328V28.45H108.773V0.690186Z" fill="#046548"/>
<path id="Vector_6" d="M19.8698 49.0737V54.8932H0.0132446V30.5312H19.8698V36.1512H7.95586V39.6892H17.5875V45.0934H7.95586V49.0737H19.8698Z" fill="#45AC34"/>
<path id="Vector_7" d="M49.9247 30.5312V54.8932H42.7945V37.4725L38.1658 54.8932H33.2911L28.4807 37.4725V54.8932H22.7242V30.5312H32.7566L36.3859 43.47L39.8548 30.5312H49.9247Z" fill="#45AC34"/>
<path id="Vector_8" d="M52.8805 54.8932V30.5312H66.2803C69.065 30.5312 71.0961 31.1785 72.3682 32.4783C73.6456 33.7781 74.2817 35.2559 74.2817 36.9224C74.2817 38.1359 73.9129 39.2308 73.1699 40.2124C72.427 41.194 71.3259 41.8682 69.8561 42.2403C73.2715 43.0008 74.9819 44.8938 74.9819 47.9141C74.9819 49.7209 74.3779 51.3389 73.1753 52.7574C71.9673 54.1813 69.3964 54.8932 65.4518 54.8932H52.8858H52.8805ZM60.3474 39.8618H64.0995C65.0403 39.8618 65.703 39.6407 66.0932 39.2038C66.478 38.7616 66.6705 38.2923 66.6705 37.7908C66.6705 36.437 65.7672 35.7574 63.9659 35.7574H60.3527V39.8618H60.3474ZM60.3474 49.4674H64.292C65.2701 49.4674 65.9917 49.2463 66.4513 48.7987C66.9056 48.351 67.1355 47.8494 67.1355 47.2885C67.1355 46.7276 66.9163 46.2152 66.4674 45.746C66.0237 45.2768 65.2059 45.0395 64.0194 45.0395H60.3474V49.4674Z" fill="#45AC34"/>
<path id="Vector_9" d="M90.9366 54.8932L89.4453 50.0931H82.3793L80.7918 54.8932H74.2175L82.3632 30.5312H90.9259L99.2052 54.8932H90.9366ZM83.7529 44.7752H88.0236L85.8909 37.7098L83.7583 44.7752H83.7529Z" fill="#45AC34"/>
<path id="Vector_10" d="M118.986 48.9119V54.8878H100.482V30.5312H108.585V48.9119H118.986Z" fill="#45AC34"/>
<path id="Vector_11" d="M99.9001 61.8509C100.119 62.7624 95.576 61.8994 87.9274 61.8994C80.2894 61.7862 69.5514 62.5359 57.5359 63.9489C45.5204 65.3458 34.5793 65.7449 26.6313 64.7795C18.678 63.9543 13.7126 61.7592 13.472 61.1012C13.2529 60.1897 17.7961 61.0527 25.4448 61.0527C33.0827 61.1713 43.8207 60.4217 55.8416 59.0032C67.857 57.6063 78.7928 57.2072 86.7408 58.1726C94.6994 58.9978 99.6649 61.1929 99.8948 61.8509" fill="#E73741"/>
</g>
</svg>
