<svg width="119" height="65" viewBox="0 0 119 65" fill="none" xmlns="http://www.w3.org/2000/svg">
<path d="M8.74974 17.6741V27.7598H0.181763V0H11.93C14.859 0 17.0879 0.339783 18.6112 1.01935C20.1345 1.69892 21.3478 2.73445 22.2404 4.13133C23.133 5.52822 23.582 7.09231 23.582 8.82898C23.582 11.4717 22.668 13.6075 20.84 15.2363C19.0121 16.8651 16.5748 17.6741 13.5228 17.6741H8.74974ZM8.62681 11.7144H11.4489C13.9344 11.7144 15.1797 10.7922 15.1797 8.94763C15.1797 7.21096 14.0306 6.34262 11.7322 6.34262H8.62681V11.7144Z" fill="#046548"/>
<path d="M49.0558 0V18.3861C49.0558 21.8702 47.9815 24.3727 45.8328 25.899C43.6841 27.4254 40.8833 28.1858 37.4305 28.1858C33.7959 28.1858 30.8776 27.4523 28.6701 25.9907C26.468 24.5291 25.3616 22.1399 25.3616 18.8337V0H34.3625V17.8359C34.3625 19.1627 34.6565 20.1335 35.2391 20.743C35.8217 21.3524 36.7517 21.6598 38.0345 21.6598C39.1035 21.6598 39.9747 21.4387 40.6589 20.9965C41.343 20.5542 41.7492 20.058 41.8829 19.5025C42.0165 18.947 42.0806 17.8575 42.0806 16.2449V0H49.0558Z" fill="#046548"/>
<path d="M52.8832 27.7598V0H66.8495C69.7519 0 71.8685 0.738894 73.1994 2.21668C74.5303 3.69447 75.193 5.3826 75.193 7.28107C75.193 8.66717 74.8082 9.91305 74.0332 11.0349C73.2582 12.1513 72.109 12.9226 70.575 13.3432C74.1347 14.2116 75.9146 16.3635 75.9146 19.8099C75.9146 21.8702 75.2839 23.7093 74.0278 25.3273C72.7718 26.9454 70.0886 27.7598 65.9783 27.7598H52.8778H52.8832ZM60.6654 10.6358H64.5726C65.5507 10.6358 66.2456 10.3877 66.6464 9.88069C67.0473 9.3791 67.2504 8.84516 67.2504 8.27346C67.2504 6.72555 66.3097 5.9543 64.4283 5.9543H60.6601V10.6304L60.6654 10.6358ZM60.6654 21.5789H64.7757C65.7966 21.5789 66.5449 21.3255 67.0259 20.8185C67.5016 20.3115 67.7422 19.7398 67.7422 19.098C67.7422 18.4562 67.5123 17.8737 67.0473 17.3397C66.5823 16.8058 65.7324 16.5361 64.4978 16.5361H60.6708V21.5789H60.6654Z" fill="#046548"/>
<path d="M78.6134 0V27.7598H97.898V20.9479H87.0531V0H78.6134Z" fill="#046548"/>
<path d="M108.76 0H100.315V27.7598H108.76V0Z" fill="#046548"/>
<path d="M19.8565 48.3838V54.2032H0V29.8413H19.8565V35.4612H7.94262V38.9993H17.5742V44.4035H7.94262V48.3838H19.8565Z" fill="#45AC34"/>
<path d="M49.9115 29.8413V54.2032H42.7813V36.7826L38.1525 54.2032H33.2779L28.4675 36.7826V54.2032H22.7109V29.8413H32.7434L36.3727 42.78L39.8415 29.8413H49.9115Z" fill="#45AC34"/>
<path d="M52.8672 54.2032V29.8413H66.267C69.0517 29.8413 71.0828 30.4885 72.3549 31.7883C73.6324 33.0881 74.2684 34.5659 74.2684 36.2325C74.2684 37.446 73.8996 38.5408 73.1567 39.5224C72.4137 40.504 71.3127 41.1782 69.8428 41.5504C73.2582 42.3108 74.9686 44.2039 74.9686 47.2242C74.9686 49.031 74.3646 50.649 73.162 52.0675C71.9541 53.4913 69.3831 54.2032 65.4385 54.2032H52.8725H52.8672ZM60.3341 39.1719H64.0863C65.027 39.1719 65.6898 38.9507 66.0799 38.5139C66.4648 38.0716 66.6572 37.6024 66.6572 37.1008C66.6572 35.7471 65.7539 35.0675 63.9526 35.0675H60.3394V39.1719H60.3341ZM60.3341 48.7775H64.2787C65.2568 48.7775 65.9784 48.5564 66.4381 48.1087C66.8924 47.6611 67.1222 47.1595 67.1222 46.5986C67.1222 46.0377 66.9031 45.5253 66.4541 45.0561C66.0105 44.5868 65.1927 44.3495 64.0061 44.3495H60.3341V48.7775Z" fill="#45AC34"/>
<path d="M90.9233 54.2032L89.432 49.4031H82.366L80.7785 54.2032H74.2042L82.35 29.8413H90.9126L99.1919 54.2032H90.9233ZM83.7396 44.0852H88.0103L85.8776 37.0199L83.745 44.0852H83.7396Z" fill="#45AC34"/>
<path d="M118.973 48.222V54.1978H100.469V29.8413H108.572V48.222H118.973Z" fill="#45AC34"/>
<path d="M99.8868 61.1607C100.106 62.0722 95.5627 61.2093 87.9141 61.2093C80.2761 61.096 69.5381 61.8457 57.5226 63.2588C45.5072 64.6556 34.566 65.0548 26.6181 64.0893C18.6648 63.2641 13.6993 61.069 13.4588 60.411C13.2396 59.4996 17.7828 60.3625 25.4315 60.3625C33.0694 60.4812 43.8075 59.7315 55.8283 58.313C67.8438 56.9161 78.7796 56.517 86.7275 57.4824C94.6862 58.3076 99.6516 60.5027 99.8815 61.1607" fill="#E73741"/>
</svg>
