<svg width="21" height="21" viewBox="0 0 21 21" fill="none" xmlns="http://www.w3.org/2000/svg">
<path d="M20.4875 18.0129L16.045 13.5705C16.9629 12.1871 17.5002 10.5307 17.5002 8.75009C17.5002 3.92529 13.5749 0 8.75009 0C3.92529 0 0 3.92529 0 8.75009C0 13.5749 3.92529 17.5002 8.75009 17.5002C10.5307 17.5002 12.1871 16.9629 13.5705 16.045L18.0129 20.4875C18.6954 21.1708 19.805 21.1708 20.4875 20.4875C21.1708 19.8041 21.1708 18.6963 20.4875 18.0129ZM2.62503 8.75009C2.62503 5.37256 5.37256 2.62503 8.75009 2.62503C12.1276 2.62503 14.8752 5.37256 14.8752 8.75009C14.8752 12.1276 12.1276 14.8752 8.75009 14.8752C5.37256 14.8752 2.62503 12.1276 2.62503 8.75009Z" fill="#6AC8F2"/>
</svg>
